<svg width="12" height="20" viewBox="0 0 12 20" fill="none" xmlns="http://www.w3.org/2000/svg">
<path d="M11.1025 0.00416134L8.33528 0C5.22645 0 3.21739 1.9319 3.21739 4.92203V7.19141H0.435112C0.194691 7.19141 0 7.37409 0 7.59943V10.8875C0 11.1128 0.194913 11.2953 0.435112 11.2953H3.21739V19.5922C3.21739 19.8175 3.41208 20 3.6525 20H7.28258C7.523 20 7.71769 19.8173 7.71769 19.5922V11.2953H10.9708C11.2112 11.2953 11.4059 11.1128 11.4059 10.8875L11.4073 7.59943C11.4073 7.49123 11.3613 7.38762 11.2798 7.31105C11.1984 7.23448 11.0874 7.19141 10.9719 7.19141H7.71769V5.26763C7.71769 4.34298 7.95278 3.87358 9.23792 3.87358L11.102 3.87295C11.3422 3.87295 11.5369 3.69027 11.5369 3.46514V0.411972C11.5369 0.187052 11.3424 0.00457747 11.1025 0.00416134Z" fill="white"/>
</svg>
